
      <svg data-logo="logo" xmlns="http://www.w3.org/2000/svg" viewBox="0 0 208 43">
        <g id="logogram" transform="translate(0, 1) rotate(0) "><path d="M40.6035 40.89V0.889954H19.0079L0.603525 19.2943L0.603516 40.89H40.6035Z" fill="#2F2722"/><path fill-rule="evenodd" clip-rule="evenodd" d="M19.9139 27.4315L19.9139 39.5106L11.638 39.5106L11.638 24.0035L23.7171 11.9244L39.2242 11.9244L39.2242 20.2003L27.1451 20.2003L19.9139 27.4315Z" fill="#D62727"/><path fill-rule="evenodd" clip-rule="evenodd" d="M10.2587 23.2936L10.2587 39.5106L1.98283 39.5106L1.98283 19.8656L19.5792 2.26926L39.2242 2.26926L39.2242 10.5451L23.0072 10.5451L10.2587 23.2936Z" fill="#FFD43E"/><path fill-rule="evenodd" clip-rule="evenodd" d="M29.569 31.5695L29.569 39.5106L21.2932 39.5106L21.2932 28.1415L27.855 21.5796L39.2242 21.5796L39.2242 29.8555L31.283 29.8555L29.569 31.5695Z" fill="#EA721B"/></g>
        <g id="logotype" transform="translate(47, 1)"><path fill="#111111" d="M13.52 33L8.31 33L8.31 7.54L18.24 7.54Q21.14 7.54 23.18 8.64Q25.21 9.74 26.28 11.68Q27.35 13.62 27.35 16.13L27.35 16.13Q27.35 18.66 26.26 20.58Q25.17 22.51 23.12 23.59Q21.06 24.68 18.12 24.68L18.12 24.68L11.73 24.68L11.73 20.47L17.28 20.47Q18.89 20.47 19.92 19.92Q20.95 19.36 21.46 18.39Q21.96 17.41 21.96 16.13L21.96 16.13Q21.96 14.85 21.46 13.88Q20.95 12.90 19.91 12.37Q18.87 11.84 17.26 11.84L17.26 11.84L13.52 11.84L13.52 33ZM33.72 33L28.59 33L28.59 13.89L33.55 13.89L33.55 17.23L33.75 17.23Q34.28 15.45 35.52 14.54Q36.76 13.64 38.37 13.64L38.37 13.64Q38.76 13.64 39.21 13.68Q39.66 13.72 40.02 13.81L40.02 13.81L40.02 18.39Q39.68 18.27 39.03 18.20Q38.38 18.13 37.80 18.13L37.80 18.13Q36.64 18.13 35.70 18.64Q34.76 19.14 34.24 20.04Q33.72 20.93 33.72 22.13L33.72 22.13L33.72 33ZM49.11 33.38L49.11 33.38Q46.24 33.38 44.14 32.14Q42.04 30.90 40.90 28.68Q39.77 26.47 39.77 23.53L39.77 23.53Q39.77 20.56 40.90 18.35Q42.04 16.13 44.14 14.89Q46.24 13.65 49.11 13.65L49.11 13.65Q52.00 13.65 54.10 14.89Q56.19 16.13 57.33 18.35Q58.46 20.56 58.46 23.53L58.46 23.53Q58.46 26.47 57.33 28.68Q56.19 30.90 54.10 32.14Q52.00 33.38 49.11 33.38ZM49.11 29.34L49.11 29.34Q50.48 29.34 51.40 28.58Q52.33 27.82 52.79 26.50Q53.25 25.17 53.25 23.52L53.25 23.52Q53.25 21.82 52.79 20.51Q52.33 19.19 51.40 18.44Q50.48 17.69 49.11 17.69L49.11 17.69Q47.75 17.69 46.83 18.44Q45.92 19.19 45.46 20.51Q44.99 21.82 44.99 23.52L44.99 23.52Q44.99 25.17 45.46 26.50Q45.92 27.82 46.83 28.58Q47.75 29.34 49.11 29.34ZM59.76 7.54L64.89 7.54L64.89 33L59.76 33L59.76 7.54ZM75.51 33.38L75.51 33.38Q72.64 33.38 70.54 32.14Q68.44 30.90 67.30 28.68Q66.17 26.47 66.17 23.53L66.17 23.53Q66.17 20.56 67.30 18.35Q68.44 16.13 70.54 14.89Q72.64 13.65 75.51 13.65L75.51 13.65Q78.40 13.65 80.49 14.89Q82.59 16.13 83.72 18.35Q84.86 20.56 84.86 23.53L84.86 23.53Q84.86 26.47 83.72 28.68Q82.59 30.90 80.49 32.14Q78.40 33.38 75.51 33.38ZM75.51 29.34L75.51 29.34Q76.88 29.34 77.80 28.58Q78.73 27.82 79.19 26.50Q79.65 25.17 79.65 23.52L79.65 23.52Q79.65 21.82 79.19 20.51Q78.73 19.19 77.80 18.44Q76.88 17.69 75.51 17.69L75.51 17.69Q74.15 17.69 73.23 18.44Q72.32 19.19 71.86 20.51Q71.39 21.82 71.39 23.52L71.39 23.52Q71.39 25.17 71.86 26.50Q72.32 27.82 73.23 28.58Q74.15 29.34 75.51 29.34ZM94.63 40.55L94.63 40.55Q92.26 40.55 90.48 39.95Q88.70 39.34 87.59 38.28Q86.48 37.22 86.06 35.87L86.06 35.87L90.46 34.64Q90.70 35.17 91.21 35.67Q91.71 36.18 92.55 36.50Q93.39 36.83 94.62 36.83L94.62 36.83Q96.58 36.83 97.70 35.93Q98.82 35.03 98.82 33.14L98.82 33.14L98.82 29.62L98.43 29.62Q98.09 30.39 97.44 31.10Q96.79 31.82 95.74 32.27Q94.69 32.73 93.13 32.73L93.13 32.73Q90.98 32.73 89.22 31.72Q87.46 30.71 86.41 28.64Q85.35 26.57 85.35 23.41L85.35 23.41Q85.35 20.18 86.42 18.01Q87.49 15.84 89.26 14.75Q91.03 13.65 93.15 13.65L93.15 13.65Q94.75 13.65 95.85 14.19Q96.94 14.73 97.62 15.54Q98.29 16.35 98.63 17.11L98.63 17.11L98.86 17.11L98.86 13.89L103.90 13.89L103.90 32.85Q103.90 35.43 102.71 37.14Q101.52 38.86 99.44 39.71Q97.35 40.55 94.63 40.55ZM94.74 28.83L94.74 28.83Q96.05 28.83 96.97 28.18Q97.88 27.53 98.36 26.31Q98.84 25.09 98.84 23.38L98.84 23.38Q98.84 21.69 98.36 20.42Q97.88 19.16 96.97 18.46Q96.05 17.76 94.74 17.76L94.74 17.76Q93.39 17.76 92.47 18.48Q91.56 19.21 91.09 20.47Q90.62 21.74 90.62 23.38L90.62 23.38Q90.62 25.05 91.09 26.28Q91.56 27.50 92.48 28.16Q93.40 28.83 94.74 28.83ZM114.54 33.38L114.54 33.38Q111.67 33.38 109.57 32.14Q107.47 30.90 106.33 28.68Q105.19 26.47 105.19 23.53L105.19 23.53Q105.19 20.56 106.33 18.35Q107.47 16.13 109.57 14.89Q111.67 13.65 114.54 13.65L114.54 13.65Q117.43 13.65 119.52 14.89Q121.62 16.13 122.75 18.35Q123.89 20.56 123.89 23.53L123.89 23.53Q123.89 26.47 122.75 28.68Q121.62 30.90 119.52 32.14Q117.43 33.38 114.54 33.38ZM114.54 29.34L114.54 29.34Q115.91 29.34 116.83 28.58Q117.76 27.82 118.22 26.50Q118.68 25.17 118.68 23.52L118.68 23.52Q118.68 21.82 118.22 20.51Q117.76 19.19 116.83 18.44Q115.91 17.69 114.54 17.69L114.54 17.69Q113.18 17.69 112.26 18.44Q111.35 19.19 110.89 20.51Q110.42 21.82 110.42 23.52L110.42 23.52Q110.42 25.17 110.89 26.50Q111.35 27.82 112.26 28.58Q113.18 29.34 114.54 29.34ZM135.61 33L129.85 33L138.55 7.54L145.39 7.54L154.31 33L148.51 33L144.43 20.71Q143.69 18.34 142.93 15.51Q142.17 12.68 141.34 9.33L141.34 9.33L142.46 9.33Q141.66 12.70 140.95 15.54Q140.24 18.39 139.54 20.71L139.54 20.71L135.61 33ZM148.87 27.09L135.29 27.09L135.29 23.00L148.87 23.00L148.87 27.09ZM155.18 7.54L160.39 7.54L160.39 33L155.18 33L155.18 7.54Z"/></g>
        
      </svg>
    